<?xml version="1.0" encoding="utf-8"?>
<!-- Generator: Adobe Illustrator 19.0.0, SVG Export Plug-In . SVG Version: 6.00 Build 0)  -->
<svg version="1.1" id="Layer_1" xmlns="http://www.w3.org/2000/svg" xmlns:xlink="http://www.w3.org/1999/xlink" x="0px" y="0px"
	 viewBox="-280 210 50 50" style="enable-background:new -280 210 50 50;" xml:space="preserve">
<style type="text/css">
	.st0{fill:#0BABAB;}
	.st1{fill:#705CA0;}
</style>
<g>
	<g>
		<path class="st0" d="M-270.2,242c0,2.1,0.1,3.9,0.3,5.3c0.2,1.4,0.5,2.9,0.9,4.4h-3.7h-3.7c0.4-1.5,0.7-2.9,0.9-4.3
			c0.2-1.4,0.3-3.2,0.3-5.3v-19.6l-3.4-4h3.9h3.9c0,0.4,0.1,0.9,0.4,1.5c0.3,0.6,0.6,1.1,1,1.6l10.5,13h0l9.6-12.2
			c0.6-0.7,1-1.4,1.4-2.1c0.4-0.7,0.5-1.3,0.5-1.7h3.5h3.6c-1,1.5-1.7,3-2.1,4.4c-0.4,1.4-0.6,3.2-0.6,5.3v14c0,2.1,0.1,3.9,0.3,5.3
			c0.2,1.4,0.5,2.9,0.9,4.4h-3.7h-3.7c0.4-1.5,0.7-2.9,0.9-4.3c0.2-1.4,0.3-3.2,0.3-5.3v-14.3h0l-11,14.3h0l-11-13.6h0V242z"/>
	</g>
	<rect x="-238.1" y="244.8" class="st1" width="6.8" height="6.8"/>
</g>
</svg>
